# xmcd
#
# Track frame offsets:
#	150
#	12426
#	26814
#	40326
#	57997
#	75006
#	95534
#	129508
#	143320
#	169696
#	185240
#	201732
#	220808
#	236122
#	252941
#	270738
#	319545
#
# Disc length: 4680 seconds
#
# Revision: 1
# Processed by: cddbd v1.5.1PL0 Copyright (c) Steve Scherf et al.
# Submitted via: audiograbber 1.82.02
#
DISCID=f0124611
DTITLE=Jack Johnson - Live In Boulder 2001
DYEAR=2001
DGENRE=
TTITLE0=Gone
TTITLE1=Tomorrow Morning
TTITLE2=Holes To Heaven
TTITLE3=Drink The Water
TTITLE4=Losing Hope
TTITLE5=Taylor
TTITLE6=Wasting Time
TTITLE7=Slammin' and Bangin' (Last Thoughts On Woody Guthrie)
TTITLE8=Sexy Plexi
TTITLE9=Fortunate Fool
TTITLE10=Rodeo Clowns
TTITLE11=It's All Understood
TTITLE12=F-Stop Blues
TTITLE13=Posters
TTITLE14=Flake
TTITLE15=(Medley) Cookie Jar, Plastic Jesus
TTITLE16=Inaudible Melodies
EXTD=Track 11 is only 4 sec. long and emty 
EXTT0=
EXTT1=
EXTT2=
EXTT3=
EXTT4=
EXTT5=
EXTT6=
EXTT7=
EXTT8=
EXTT9=
EXTT10=
EXTT11=
EXTT12=
EXTT13=
EXTT14=
EXTT15=
EXTT16=
PLAYORDER=
